<?xml version="1.0" standalone="no"?>
<!DOCTYPE svg PUBLIC "-//W3C//DTD SVG 20010904//EN"
 "http://www.w3.org/TR/2001/REC-SVG-20010904/DTD/svg10.dtd">
<svg version="1.0" xmlns="http://www.w3.org/2000/svg"
 width="1000.000000pt" height="990.000000pt" viewBox="0 0 1000.000000 990.000000"
 preserveAspectRatio="xMidYMid meet">

<g transform="translate(0.000000,990.000000) scale(0.100000,-0.100000)"
fill="#000000" stroke="none">
<path d="M4705 9043 c-387 -31 -680 -88 -1006 -196 -908 -300 -1688 -920
-2188 -1741 -661 -1084 -772 -2430 -299 -3611 444 -1106 1352 -1962 2483
-2340 796 -265 1695 -270 2502 -14 1155 368 2090 1244 2537 2377 556 1412 274
3018 -731 4162 -242 275 -512 509 -823 713 -570 373 -1217 593 -1899 647 -123
9 -477 11 -576 3z m605 -774 c910 -98 1716 -553 2273 -1284 357 -468 581
-1030 647 -1624 6 -52 9 -96 6 -98 -7 -7 -127 24 -221 57 -102 37 -231 99
-355 173 -99 58 -130 84 -124 102 3 8 -9 14 -38 19 -32 5 -53 17 -83 46 -76
76 -144 136 -167 148 -56 29 -90 52 -128 86 -22 20 -45 36 -51 36 -7 0 -21 9
-33 20 -74 69 -110 100 -118 100 -4 0 -8 6 -8 14 0 7 -16 24 -35 37 -43 29
-95 103 -95 136 0 15 -9 27 -25 35 -13 6 -22 15 -19 19 3 5 -2 9 -10 9 -9 0
-33 9 -53 20 -21 11 -51 20 -67 20 -46 0 -155 65 -216 130 -38 40 -66 60 -90
65 -45 9 -110 42 -110 55 0 6 -12 15 -26 20 -14 6 -22 14 -19 20 3 5 -7 13
-22 16 -56 14 -153 64 -153 79 0 10 -10 15 -30 15 -17 0 -47 8 -68 19 -43 22
-190 63 -312 86 -113 23 -426 31 -556 16 -239 -28 -440 -87 -639 -186 -190
-95 -293 -173 -498 -377 -98 -98 -183 -178 -189 -178 -6 0 -32 -16 -59 -36
-27 -20 -49 -30 -49 -23 0 8 -7 6 -20 -6 -18 -17 -20 -17 -20 -1 0 13 -13 6
-50 -26 -66 -57 -114 -66 -455 -88 -256 -16 -445 -62 -652 -161 -152 -73 -403
-302 -403 -369 0 -22 89 -50 158 -50 29 0 52 -4 52 -10 0 -29 161 -130 207
-130 10 0 45 -13 78 -28 33 -16 164 -59 290 -96 357 -104 526 -155 580 -178
28 -11 66 -23 85 -25 40 -6 60 -26 60 -60 0 -17 5 -23 16 -21 11 2 24 -11 37
-35 11 -21 30 -45 43 -54 13 -8 24 -24 24 -34 0 -10 5 -21 10 -24 6 -3 10 -30
10 -58 1 -45 2 -50 14 -34 16 21 26 22 26 2 0 -8 9 -15 19 -15 12 0 23 -9 27
-22 4 -13 10 -25 13 -28 4 -3 18 -23 31 -45 14 -22 41 -57 61 -77 22 -22 47
-65 60 -102 25 -65 82 -139 117 -150 11 -4 69 -55 128 -114 60 -60 148 -140
196 -180 103 -85 128 -118 128 -166 0 -20 4 -36 10 -36 8 0 37 -85 54 -162 4
-16 11 -28 16 -28 6 0 10 -6 10 -14 0 -8 9 -30 20 -49 12 -19 23 -58 27 -86 3
-28 10 -54 14 -57 5 -3 9 -13 9 -22 0 -9 16 -34 35 -56 19 -21 35 -48 35 -60
0 -12 5 -27 11 -33 29 -29 52 -188 51 -348 -1 -103 -6 -139 -21 -175 -25 -60
-35 -104 -21 -95 15 9 12 -46 -5 -95 -18 -52 -18 -51 -1 -44 17 7 31 -61 29
-143 0 -43 3 -53 16 -53 13 0 21 -23 38 -108 12 -59 34 -147 48 -196 14 -49
23 -91 20 -94 -3 -3 -67 0 -143 6 -661 57 -1265 300 -1787 718 -141 113 -376
348 -489 489 -384 479 -620 1032 -703 1645 -25 188 -25 669 0 849 67 467 211
881 444 1266 510 847 1384 1426 2354 1560 254 35 558 40 799 14z m-135 -2168
c100 -34 163 -73 260 -164 73 -68 87 -89 130 -200 30 -76 26 -108 -19 -157
-17 -18 -25 -41 -29 -85 -4 -34 -13 -77 -21 -97 -32 -76 -183 -235 -250 -263
-17 -7 -49 -20 -71 -30 -122 -52 -421 -28 -480 39 -11 12 -38 33 -60 46 -78
46 -114 81 -141 138 -15 31 -32 63 -38 71 -18 23 -37 132 -36 201 1 111 48
243 113 318 20 24 37 47 37 52 0 12 73 50 95 50 9 0 29 13 45 29 58 58 110 70
342 79 20 1 76 -11 123 -27z"/>
<path d="M4880 6004 c-35 -8 -68 -21 -72 -28 -4 -8 -26 -17 -48 -21 -27 -4
-44 -14 -52 -28 -6 -12 -29 -43 -52 -68 -23 -26 -59 -68 -80 -94 l-39 -47 2
-100 c2 -111 16 -158 66 -224 82 -107 193 -170 331 -187 89 -12 121 -6 219 39
28 12 66 29 86 37 52 21 119 84 119 112 0 39 29 96 48 94 35 -3 40 2 47 56 3
30 11 57 16 60 16 11 10 36 -20 74 -15 20 -31 50 -35 66 -4 17 -16 38 -26 47
-10 10 -16 25 -14 35 8 29 -65 96 -132 122 -186 74 -239 82 -364 55z m327
-184 c45 -17 88 -70 88 -110 0 -30 -5 -37 -39 -55 -53 -28 -117 -24 -161 9
-42 32 -50 57 -31 94 18 35 37 51 73 62 38 11 38 11 70 0z"/>
</g>
</svg>
